<?xml version="1.0" encoding="UTF-8" standalone="no"?>
<!DOCTYPE svg PUBLIC "-//W3C//DTD SVG 1.1//EN" "http://www.w3.org/Graphics/SVG/1.1/DTD/svg11.dtd">
<svg width="100%" height="100%" viewBox="0 0 256 256" version="1.1" xmlns="http://www.w3.org/2000/svg" xmlns:xlink="http://www.w3.org/1999/xlink" xml:space="preserve" xmlns:serif="http://www.serif.com/" style="fill-rule:evenodd;clip-rule:evenodd;stroke-linecap:round;stroke-linejoin:round;stroke-miterlimit:1.5;">
    <g transform="matrix(0.826389,0,0,0.826331,22.222222,22.235098)">
        <rect x="32" y="32.064" width="192" height="191.936" style="fill:none;stroke:rgb(255,59,66);stroke-width:20.17px;"/>
        <rect x="32" y="32.064" width="192" height="191.936" style="fill:rgb(255,59,66);fill-opacity:0.15;"/>
    </g>
    <g>
        <g transform="matrix(1.224818,0,0,1.224818,9.472494,9.458207)">
            <path d="M32.001,18.456C39.515,18.456 45.607,24.548 45.607,32.063L45.607,32.064C45.607,39.579 39.515,45.671 32.001,45.671L31.999,45.671C24.485,45.671 18.393,39.579 18.393,32.064L18.393,32.063C18.393,24.548 24.485,18.456 31.999,18.456L32.001,18.456Z" style="fill:white;stroke:white;stroke-width:20.41px;"/>
        </g>
        <g transform="matrix(1.224818,0,0,1.224818,168.139161,9.458207)">
            <path d="M32.001,18.456C39.515,18.456 45.607,24.548 45.607,32.063L45.607,32.064C45.607,39.579 39.515,45.671 32.001,45.671L31.999,45.671C24.485,45.671 18.393,39.579 18.393,32.064L18.393,32.063C18.393,24.548 24.485,18.456 31.999,18.456L32.001,18.456Z" style="fill:white;stroke:white;stroke-width:20.41px;"/>
        </g>
        <g transform="matrix(1.224818,0,0,1.224818,168.139161,168.061326)">
            <path d="M32.001,18.456C39.515,18.456 45.607,24.548 45.607,32.063L45.607,32.064C45.607,39.579 39.515,45.671 32.001,45.671L31.999,45.671C24.485,45.671 18.393,39.579 18.393,32.064L18.393,32.063C18.393,24.548 24.485,18.456 31.999,18.456L32.001,18.456Z" style="fill:white;stroke:white;stroke-width:20.41px;"/>
        </g>
        <g transform="matrix(1.224818,0,0,1.224818,9.472494,168.061326)">
            <path d="M32.001,18.456C39.515,18.456 45.607,24.548 45.607,32.063L45.607,32.064C45.607,39.579 39.515,45.671 32.001,45.671L31.999,45.671C24.485,45.671 18.393,39.579 18.393,32.064L18.393,32.063C18.393,24.548 24.485,18.456 31.999,18.456L32.001,18.456Z" style="fill:white;stroke:white;stroke-width:20.41px;"/>
        </g>
    </g>
    <g>
        <g transform="matrix(1.224818,0,0,1.224818,9.472494,9.458207)">
            <path d="M32.001,18.456C39.515,18.456 45.607,24.548 45.607,32.063L45.607,32.064C45.607,39.579 39.515,45.671 32.001,45.671L31.999,45.671C24.485,45.671 18.393,39.579 18.393,32.064L18.393,32.063C18.393,24.548 24.485,18.456 31.999,18.456L32.001,18.456Z" style="fill:white;stroke:rgb(255,59,66);stroke-width:13.61px;"/>
        </g>
        <g transform="matrix(1.224818,0,0,1.224818,168.139161,9.458207)">
            <path d="M32.001,18.456C39.515,18.456 45.607,24.548 45.607,32.063L45.607,32.064C45.607,39.579 39.515,45.671 32.001,45.671L31.999,45.671C24.485,45.671 18.393,39.579 18.393,32.064L18.393,32.063C18.393,24.548 24.485,18.456 31.999,18.456L32.001,18.456Z" style="fill:white;stroke:rgb(255,59,66);stroke-width:13.61px;"/>
        </g>
        <g transform="matrix(1.224818,0,0,1.224818,168.139161,168.061326)">
            <path d="M32.001,18.456C39.515,18.456 45.607,24.548 45.607,32.063L45.607,32.064C45.607,39.579 39.515,45.671 32.001,45.671L31.999,45.671C24.485,45.671 18.393,39.579 18.393,32.064L18.393,32.063C18.393,24.548 24.485,18.456 31.999,18.456L32.001,18.456Z" style="fill:white;stroke:rgb(255,59,66);stroke-width:13.61px;"/>
        </g>
        <g transform="matrix(1.224818,0,0,1.224818,9.472494,168.061326)">
            <path d="M32.001,18.456C39.515,18.456 45.607,24.548 45.607,32.063L45.607,32.064C45.607,39.579 39.515,45.671 32.001,45.671L31.999,45.671C24.485,45.671 18.393,39.579 18.393,32.064L18.393,32.063C18.393,24.548 24.485,18.456 31.999,18.456L32.001,18.456Z" style="fill:white;stroke:rgb(255,59,66);stroke-width:13.61px;"/>
        </g>
    </g>
    <path d="M89.809,82.493L166.191,82.493" style="fill:none;stroke:rgb(255,59,66);stroke-width:16.67px;"/>
    <path d="M128,82.493L128,173.507" style="fill:none;stroke:rgb(255,59,66);stroke-width:16.67px;"/>
</svg>
