<?xml version="1.0" encoding="UTF-8" standalone="no"?>
<!DOCTYPE svg PUBLIC "-//W3C//DTD SVG 1.1//EN" "http://www.w3.org/Graphics/SVG/1.1/DTD/svg11.dtd">
<svg width="100%" height="100%" viewBox="0 0 256 256" version="1.1" xmlns="http://www.w3.org/2000/svg" xmlns:xlink="http://www.w3.org/1999/xlink" xml:space="preserve" xmlns:serif="http://www.serif.com/" style="fill-rule:evenodd;clip-rule:evenodd;stroke-linecap:round;stroke-linejoin:round;stroke-miterlimit:1.5;">
    <path d="M32,224L224,224" style="fill:none;stroke:rgb(255,59,66);stroke-width:16.67px;"/>
    <g transform="matrix(0.741486,0,0,0.741486,33.089735,41.882782)">
        <path d="M-1.47,211.85L5.32,211.85C13.671,211.85 21.68,208.532 27.585,202.627C33.491,196.722 36.808,188.713 36.808,180.362C36.808,180.361 36.808,180.36 36.808,180.36C36.808,130.03 77.67,89.168 128,89.168C178.33,89.168 219.192,130.03 219.192,180.36L219.192,180.362C219.192,188.713 222.509,196.722 228.415,202.627C234.32,208.532 242.329,211.85 250.68,211.85C254.713,211.85 257.47,211.85 257.47,211.85" style="fill:rgb(255,59,66);fill-opacity:0.15;stroke:rgb(255,59,66);stroke-width:22.48px;"/>
    </g>
    <g transform="matrix(1,0,0,0.30471,-6.662866,46.679961)">
        <g transform="matrix(0,2.610003,-1,0,125.69464,-256.766612)">
            <path d="M79.999,16.032C80,16.032 80,16.032 80.001,16.031C84.241,11.782 89.997,9.395 96,9.395C102.003,9.395 107.759,11.782 111.999,16.031C112,16.032 112,16.032 112.001,16.032C116.241,20.281 121.997,22.669 128,22.669C134.003,22.669 139.759,20.281 143.999,16.032C144,16.032 144,16.032 144.001,16.031" style="fill:none;stroke:rgb(255,59,66);stroke-width:9.22px;"/>
        </g>
        <g transform="matrix(0,2.610003,-1,0,150.668908,-256.766612)">
            <path d="M79.999,16.032C80,16.032 80,16.032 80.001,16.031C84.241,11.782 89.997,9.395 96,9.395C102.003,9.395 107.759,11.782 111.999,16.031C112,16.032 112,16.032 112.001,16.032C116.241,20.281 121.997,22.669 128,22.669C134.003,22.669 139.759,20.281 143.999,16.032C144,16.032 144,16.032 144.001,16.031" style="fill:none;stroke:rgb(255,59,66);stroke-width:9.22px;"/>
        </g>
        <g transform="matrix(0,2.610003,-1,0,175.69464,-256.766612)">
            <path d="M79.999,16.032C80,16.032 80,16.032 80.001,16.031C84.241,11.782 89.997,9.395 96,9.395C102.003,9.395 107.759,11.782 111.999,16.031C112,16.032 112,16.032 112.001,16.032C116.241,20.281 121.997,22.669 128,22.669C134.003,22.669 139.759,20.281 143.999,16.032C144,16.032 144,16.032 144.001,16.031" style="fill:none;stroke:rgb(255,59,66);stroke-width:9.22px;"/>
        </g>
    </g>
    <g transform="matrix(3.450608,0,0,1,-281.951947,-19.854862)">
        <path d="M127.974,198.967L109.637,198.967" style="fill:none;stroke:rgb(255,59,66);stroke-width:3.28px;"/>
    </g>
    <g transform="matrix(10.470557,0,0,1,-1115.961832,0)">
        <path d="M127.974,198.967L109.637,198.967" style="fill:none;stroke:rgb(255,59,66);stroke-width:2.24px;"/>
    </g>
    <g transform="matrix(1,0,0,0.517406,0,108.101014)">
        <path d="M60.382,175.618L60.382,224" style="fill:none;stroke:rgb(255,59,66);stroke-width:20.93px;"/>
    </g>
    <g transform="matrix(-1,0,0,0.517406,256,108.101014)">
        <path d="M60.382,175.618L60.382,224" style="fill:none;stroke:rgb(255,59,66);stroke-width:20.93px;"/>
    </g>
</svg>
